# AST/ASF file generated using VICON BodyLanguage
# -----------------------------------------------
:version 1.10
:name VICON
:units
  mass 1.0
  length 0.45
  angle deg
:documentation
   .ast/.asf automatically generated from VICON data using
   VICON BodyBuilder and BodyLanguage model FoxedUp or BRILLIANT.MOD
:root
   order TX TY TZ RX RY RZ
   axis XYZ
   position 0 0 0  
   orientation 0 0 0 
:bonedata
  begin
     id 1 
     name lhipjoint
     direction 0.547975 -0.797114 0.253638 
     length 2.36201 
     axis 0 0 0  XYZ
  end
  begin
     id 2 
     name lfemur
     direction 0.34202 -0.939693 0  
     length 7.69075  
     axis 0 0 20  XYZ
    dof rx ry rz
    limits (-160.0 20.0)
           (-70.0 70.0)
           (-60.0 70.0)
  end
  begin
     id 3 
     name ltibia
     direction 0.34202 -0.939693 0   
     length 7.91399   
     axis 0 0 20   XYZ
    dof rx
    limits (-10.0 170.0)
  end
  begin
     id 4 
     name lfoot
     direction 0.0705293 -0.193778 0.978507   
     length 2.13618   
     axis -90 7.62852e-016 20   XYZ
    dof rx rz
    limits (-45.0 90.0)
           (-70.0 20.0)
  end
  begin
     id 5 
     name ltoes
     direction 1.53592e-011 -4.21925e-011 1   
     length 1.07518   
     axis -90 7.62852e-016 20   XYZ
    dof rx
    limits (-90.0 20.0)
  end
  begin
     id 6 
     name rhipjoint
     direction -0.57 -0.782963 0.249136   
     length 2.4047  
     axis 0 0 0  XYZ 
  end
  begin
     id 7 
     name rfemur
     direction -0.34202 -0.939693 0   
     length 7.51486   
     axis 0 0 -20   XYZ
    dof rx ry rz
    limits (-160.0 20.0)
           (-70.0 70.0)
           (-70.0 60.0)
  end
  begin
     id 8 
     name rtibia
     direction -0.34202 -0.939693 0   
     length 8.08317   
     axis 0 0 -20   XYZ
    dof rx
    limits (-10.0 170.0)
 end
 begin
     id 9 
     name rfoot
     direction -0.104954 -0.281256 0.953876   
     length 2.30343  
     axis -90 -7.62852e-016 -20   XYZ
    dof rx rz
    limits (-45.0 90.0)
           (-20.0 70.0)
  end
  begin
     id 10 
     name rtoes
     direction -1.53556e-011 -4.21922e-011 1   
     length 1.14803   
     axis -90 -7.62852e-016 -20   XYZ
    dof rx
    limits (-90.0 20.0)
  end
  begin
     id 11 
     name lowerback
     direction -0.0152855 0.99353 -0.11254   
     length 2.05311   
     axis 0 0 0   XYZ
    dof rx ry rz
    limits (-20.0 45.0)
           (-30.0 30.0)
           (-30.0 30.0)
  end
  begin
     id 12 
     name upperback
     direction -0.00157509 0.999443 -0.033332   
     length 2.06353   
     axis 0 0 0   XYZ
    dof rx ry rz
    limits (-20.0 45.0)
           (-30.0 30.0)
           (-30.0 30.0)
  end
  begin
     id 13 
     name thorax
     direction 0.00577788 0.999804 0.0189484   
     length 2.08472   
     axis 0 0 0   XYZ
    dof rx ry rz
    limits (-20.0 45.0)
           (-30.0 30.0)
           (-30.0 30.0)
  end
  begin
     id 14 
     name lowerneck
     direction -1.09301e-005 0.994719 0.10264   
     length 1.76249   
     axis 0 0 0   XYZ
    dof rx ry rz
    limits (-20.0 45.0)
           (-30.0 30.0)
           (-30.0 30.0)
  end
  begin
     id 15 
     name upperneck
     direction 0.0495018 0.988526 -0.142706   
     length 1.77897   
     axis 0 0 0   XYZ
    dof rx ry rz
    limits (-20.0 45.0)
           (-30.0 30.0)
           (-30.0 30.0)
  end
  begin
     id 16
     name head
     direction 0.0142736 0.998114 -0.0597101  
     length 1.78934  
     axis 0 0 0   XYZ
    dof rx ry rz
    limits (-20.0 45.0)
           (-30.0 30.0)
           (-30.0 30.0)
  end
  begin
     id 17 
     name lclavicle
     direction 0.918111 0.396107 -0.0130883  
     length 3.37276  
     axis 0 0 0   XYZ
    dof ry rz
    limits (-20.0 10.0)
           (0.0 20.0)
  end
  begin
     id 18 
     name lhumerus
     direction 1 -4.48975e-011 -3.26108e-027   
     length 5.34298   
     axis 180 -30 -90   XYZ
    dof rx ry rz
    limits (-60.0 90.0)
           (-90.0 90.0)
           (-90.0 90.0)
  end
  begin
     id 19
     name lradius
     direction 1 -4.48964e-011 -8.84413e-028   
     length 3.67262   
     axis 180 -30 -90   XYZ
    dof rx
    limits (-10.0 170.0)
  end
  begin
     id 20
     name lwrist
     direction 1 -4.48991e-011 -1.24264e-027   
     length 1.83631   
     axis -2.17013e-015 90 90   XYZ
    dof ry
    limits (-180.0 0.0)
 end
  begin
     id 21 
     name lhand
     direction 1 -4.48855e-011 -2.48528e-027   
     length 0.599298   
     axis 1.58582e-015 90 90   XYZ
    dof rx rz
    limits (-90.0 90.0)
           (-45.0 45.0)
  end
  begin
     id 22 
     name lfingers
     direction 1 -4.48811e-011 -4.97056e-027   
     length 0.48317   
     axis 3.17164e-015 90 90   XYZ
    dof rx
    limits (0.0 90.0)
  end
  begin
     id 23
     name lthumb
     direction 0.707107 -6.34882e-011 0.707107   
     length 0.693738   
     axis -90 45 2.85299e-015   XYZ
    dof rx rz
    limits (-45.0 45.0)
           (-45.0 45.0)
  end
  begin
     id 24 
     name rclavicle
     direction -0.920511 0.384752 -0.0680135   
     length 3.43787  
     axis 0 0 0   XYZ 
    dof ry rz
    limits (-10.0 20.0)
           (-20.0 0.0)
  end
  begin
     id 25 
     name rhumerus
     direction -0.999976 -0.00330524 0.00603274  
     length 5.5498   
     axis 180 30 90   XYZ
    dof rx ry rz
    limits (-90.0 60.0)
           (-90.0 90.0)
           (-90.0 90.0)
  end
  begin
     id 26 
     name rradius
     direction -1 -4.48967e-011 8.62438e-027   
     length 3.69401   
     axis 180 30 90   XYZ
    dof rx
    limits (-10.0 170.0)
  end
  begin
     id 27 
     name rwrist
     direction -1 -4.4897e-011 9.54866e-027   
     length 1.84701   
     axis -7.69462e-015 -90 -90   XYZ
    dof ry
    limits (-180.0 0.0)
  end
  begin
     id 28
     name rhand
     direction -1 -4.48982e-011 1.90973e-026   
     length 0.638113   
     axis -1.21857e-014 -90 -90   XYZ
    dof rx rz
    limits (-90.0 90.0)
           (-45.0 45.0)
  end
  begin
     id 29
     name rfingers
     direction -1 -4.48936e-011 3.81946e-026   
     length 0.514463   
     axis -2.43714e-014 -90 -90   XYZ
    dof rx
    limits (0.0 90.0)
  end
  begin
     id 30
     name rthumb
     direction -0.707107 -6.34942e-011 0.707107   
     length 0.738669   
     axis -90 -45 -2.85299e-015   XYZ
    dof rx rz
    limits (-45.0 45.0)
           (-45.0 45.0)
  end
:hierarchy
  begin
    root lhipjoint rhipjoint lowerback
    lhipjoint lfemur
    lfemur ltibia
    ltibia lfoot
    lfoot ltoes
    rhipjoint rfemur
    rfemur rtibia
    rtibia rfoot
    rfoot rtoes
    lowerback upperback
    upperback thorax
    thorax lowerneck lclavicle rclavicle
    lowerneck upperneck
    upperneck head
    lclavicle lhumerus
    lhumerus lradius
    lradius lwrist
    lwrist lhand lthumb
    lhand lfingers
    rclavicle rhumerus
    rhumerus rradius
    rradius rwrist
    rwrist rhand rthumb
    rhand rfingers
  end

#!OML:ASF F:\twosubjects\two\Thursday\Session 1\Rory.ASF
:FULLY-SPECIFIED
:DEGREES
51
root 7.36316 10.5219 11.7354 168.927 -4.16482 179.138
lowerback 40.0787 4.69866 3.05695
upperback 17.8168 -0.154517 0.485235
thorax 0.540216 -2.77329 -1.02934
lowerneck -15.3041 -3.17284 -5.0178
upperneck -8.12291 -4.48268 6.13631
head 0.259479 -2.56365 2.62768
rclavicle 9.54166e-015 1.04362e-015
rhumerus 39.9834 29.5726 -47.0011
rradius 67.1285
rwrist 7.18132
rhand -10.6272 9.60592
rfingers 7.12502
rthumb 15.3796 -19.8021
lclavicle 9.54166e-015 1.04362e-015
lhumerus 40.4813 -32.5961 45.9884
lradius 64.2427
lwrist -24.7188
lhand -18.7416 10.9663
lfingers 7.12502
lthumb 7.55457 40.8114
rfemur -79.1049 -20.2107 4.71072
rtibia 89.273
rfoot 10.1809 -1.52669
rtoes -17.5665
lfemur -74.8228 23.9934 -5.21346
ltibia 81.7585
lfoot 13.1015 -5.57941
ltoes -6.07395
52
root 7.36381 10.5278 11.7405 168.886 -4.12849 179.344
lowerback 40.0877 4.65193 3.23555
upperback 17.8307 -0.159411 0.51415
thorax 0.560905 -2.76953 -1.08969
lowerneck -15.2236 -3.14257 -4.95439
upperneck -8.2969 -4.46813 6.02363
head 0.182302 -2.56873 2.58163
rclavicle -2.5345e-015 -9.74045e-015
rhumerus 40.0024 29.5709 -47.0457
rradius 67.2749
rwrist 7.16202
rhand -10.1185 8.4323
rfingers 7.12502
rthumb 15.8695 -20.9374
lclavicle -2.5345e-015 -9.74045e-015
lhumerus 40.342 -32.4067 46.342
lradius 64.1569
lwrist -24.5281
lhand -16.8192 10.4364
lfingers 7.12502
lthumb 9.40982 40.2063
rfemur -79.0907 -20.1592 4.95332
rtibia 89.2799
rfoot 10.1668 -1.58176
rtoes -18.2413
lfemur -74.8019 24.0236 -4.99473
ltibia 81.732
lfoot 13.0422 -5.98052
ltoes -7.4422
53
root 7.36599 10.5274 11.7438 168.749 -4.234 179.163
lowerback 40.2753 4.67681 3.09027
upperback 17.8207 -0.198373 0.492097
thorax 0.487412 -2.80714 -1.02104
lowerneck -14.9979 -3.10082 -4.7919
upperneck -8.52873 -4.4548 5.81289
head 0.056983 -2.57815 2.48721
rclavicle 2.32081e-014 -1.41634e-014
rhumerus 39.948 29.5669 -47.1134
rradius 67.1888
rwrist 7.44818
rhand -10.248 9.19099
rfingers 7.12502
rthumb 15.7448 -20.1886
lclavicle 2.32081e-014 -1.41634e-014
lhumerus 40.2767 -32.5742 46.1552
lradius 64.11
lwrist -25.0275
lhand -18.1537 11.6276
lfingers 7.12502
lthumb 8.12198 41.4515
rfemur -78.931 -20.2536 4.69055
rtibia 89.2982
rfoot 9.52678 -3.45917
rtoes -8.23603
lfemur -74.6797 23.9276 -5.19183
ltibia 81.7146
lfoot 13.0816 -5.89547
ltoes -6.81846
54
root 7.36591 10.527 11.7441 168.756 -4.3332 178.69
lowerback 40.3729 4.78599 2.65463
upperback 17.7939 -0.217859 0.431135
thorax 0.410263 -2.84298 -0.851573
lowerneck -14.9038 -3.08027 -4.60358
upperneck -8.66073 -4.47057 5.5681
head -0.0137591 -2.59962 2.3728
rclavicle -5.81445e-015 3.03644e-014
rhumerus 39.9405 29.6067 -47.0213
rradius 67.1383
rwrist 7.54974
rhand -10.6433 9.86196
rfingers 7.12502
rthumb 15.3641 -19.5472
lclavicle -5.81445e-015 3.03644e-014
lhumerus 40.3749 -32.809 45.5462
lradius 64.3645
lwrist -24.5936
lhand -19.3504 12.8988
lfingers 7.12502
lthumb 6.96694 42.7641
rfemur -78.9538 -20.3991 4.16843
rtibia 89.3224
rfoot 10.1862 -1.49805
rtoes -17.3986
lfemur -74.6189 23.8414 -5.72067
ltibia 81.7015
lfoot 13.0467 -5.68542
ltoes -6.21178
55
root 7.36384 10.5293 11.7413 168.928 -4.25966 178.764
lowerback 40.1901 4.78009 2.70195
upperback 17.7861 -0.178441 0.44507
thorax 0.457698 -2.80771 -0.877406
lowerneck -15.0013 -3.11519 -4.52988
upperneck -8.67874 -4.53665 5.49146
head -0.00504855 -2.63913 2.32904
rclavicle -5.11871e-015 -8.94531e-016
rhumerus 40.0098 29.5861 -46.9125
rradius 67.182
rwrist 7.37581
rhand -10.5599 10.018
rfingers 7.12502
rthumb 15.4445 -19.385
lclavicle -5.11871e-015 -8.94531e-016
lhumerus 40.5648 -32.8189 45.3384
lradius 64.3348
lwrist -24.2828
lhand -19.711 13.1422
lfingers 7.12502
lthumb 6.61885 43.0187
rfemur -79.1565 -20.3779 4.31105
rtibia 89.3267
rfoot 9.81293 -2.7951
rtoes -9.79127
lfemur -74.7988 23.9504 -5.7067
ltibia 81.7076
lfoot 13.0004 -5.84846
ltoes -7.13559
